# xmcd CD database file
#
# Track frame offsets:
#	150
#	14582
#	29755
#	47647
#	57735
#	71447
#	87240
#	104265
#	119572
#	136120
#	159167
#	175335
#
# Disc length: 2618 seconds
#
# Revision: 4
# Processed by: cddbd v1.5.1PL0 Copyright (c) Steve Scherf et al.
# Submitted via: CDex 1.51
#
DISCID=a50a380c
DTITLE=Bob Margolin - Hold Me To It
DYEAR=1999
DGENRE=Blues
TTITLE0=All You Left Behind
TTITLE1=Hold Me To It
TTITLE2=Mean Old Chicago
TTITLE3=Slam 'em Down
TTITLE4=No Consolation
TTITLE5=Consolation
TTITLE6=Ice Or Fire
TTITLE7=Lost Again
TTITLE8=Hard Feelings
TTITLE9=Not Dark Yet
TTITLE10=Stick Out Your Can
TTITLE11=Wee Baby Blues
EXTD=YEAR: 1999
EXTT0=
EXTT1=
EXTT2=
EXTT3=
EXTT4=
EXTT5=
EXTT6=
EXTT7=
EXTT8=
EXTT9=
EXTT10=
EXTT11=
PLAYORDER=
